<svg width="24" height="24" viewBox="0 0 24 24" fill="none" xmlns="http://www.w3.org/2000/svg">
<path d="M18 15H16V17H18M18 11H16V13H18M20 19H12V17H14V15H12V13H14V11H12V9H20M10 7H8V5H10M10 11H8V9H10M10 15H8V13H10M10 19H8V17H10M6 7H4V5H6M6 11H4V9H6M6 15H4V13H6M6 19H4V17H6M12 7V3H2V21H22V7H12Z" fill="#0091D0"/>
<rect x="4" y="9" width="16" height="10" fill="#0091D0"/>
<path d="M9.564 10.908C9.564 10.948 9.548 10.984 9.516 11.016C9.492 11.04 9.46 11.052 9.42 11.052H5.484C5.444 11.052 5.424 11.072 5.424 11.112V12.972C5.424 13.012 5.444 13.032 5.484 13.032H8.064C8.104 13.032 8.136 13.048 8.16 13.08C8.192 13.104 8.208 13.136 8.208 13.176V14.34C8.208 14.38 8.192 14.416 8.16 14.448C8.136 14.472 8.104 14.484 8.064 14.484H5.484C5.444 14.484 5.424 14.504 5.424 14.544V16.488C5.424 16.528 5.444 16.548 5.484 16.548H9.42C9.46 16.548 9.492 16.564 9.516 16.596C9.548 16.62 9.564 16.652 9.564 16.692V17.856C9.564 17.896 9.548 17.932 9.516 17.964C9.492 17.988 9.46 18 9.42 18H3.876C3.836 18 3.8 17.988 3.768 17.964C3.744 17.932 3.732 17.896 3.732 17.856V9.744C3.732 9.704 3.744 9.672 3.768 9.648C3.8 9.616 3.836 9.6 3.876 9.6H9.42C9.46 9.6 9.492 9.616 9.516 9.648C9.548 9.672 9.564 9.704 9.564 9.744V10.908Z" fill="#F5F5F5"/>
</svg>
