<svg width="24" height="24" viewBox="0 0 24 24" fill="none" xmlns="http://www.w3.org/2000/svg">
<path d="M18 15H16V17H18M18 11H16V13H18M20 19H12V17H14V15H12V13H14V11H12V9H20M10 7H8V5H10M10 11H8V9H10M10 15H8V13H10M10 19H8V17H10M6 7H4V5H6M6 11H4V9H6M6 15H4V13H6M6 19H4V17H6M12 7V3H2V21H22V7H12Z" fill="#0091D0"/>
<rect x="4" y="9" width="16" height="10" fill="#0091D0"/>
<path d="M6.78 18.096C6.164 18.096 5.62 17.976 5.148 17.736C4.684 17.496 4.32 17.16 4.056 16.728C3.8 16.288 3.672 15.784 3.672 15.216V9.744C3.672 9.704 3.684 9.672 3.708 9.648C3.74 9.616 3.776 9.6 3.816 9.6H5.22C5.26 9.6 5.292 9.616 5.316 9.648C5.348 9.672 5.364 9.704 5.364 9.744V15.228C5.364 15.652 5.492 15.996 5.748 16.26C6.012 16.516 6.356 16.644 6.78 16.644C7.204 16.644 7.544 16.516 7.8 16.26C8.064 15.996 8.196 15.652 8.196 15.228V9.744C8.196 9.704 8.208 9.672 8.232 9.648C8.264 9.616 8.3 9.6 8.34 9.6H9.744C9.784 9.6 9.816 9.616 9.84 9.648C9.872 9.672 9.888 9.704 9.888 9.744V15.216C9.888 15.784 9.756 16.288 9.492 16.728C9.236 17.16 8.872 17.496 8.4 17.736C7.936 17.976 7.396 18.096 6.78 18.096Z" fill="#F5F5F5"/>
</svg>
