<svg width="179" height="70" viewBox="0 0 179 70" fill="none" xmlns="http://www.w3.org/2000/svg">
<path d="M21.36 40C21.3067 40 21.2587 39.984 21.216 39.952C21.184 39.9093 21.168 39.8613 21.168 39.808V28.992C21.168 28.9387 21.184 28.896 21.216 28.864C21.2587 28.8213 21.3067 28.8 21.36 28.8H22.832C22.8853 28.8 22.928 28.8213 22.96 28.864C23.0027 28.896 23.024 28.9387 23.024 28.992V33.776C23.024 33.808 23.0347 33.8293 23.056 33.84C23.0773 33.8507 23.0987 33.8453 23.12 33.824L27.28 28.912C27.344 28.8373 27.424 28.8 27.52 28.8H29.184C29.2907 28.8 29.344 28.8373 29.344 28.912C29.344 28.944 29.328 28.9867 29.296 29.04L25.632 33.536C25.6 33.5787 25.5947 33.616 25.616 33.648L29.552 39.776C29.5733 39.84 29.584 39.8773 29.584 39.888C29.584 39.9627 29.5307 40 29.424 40H27.744C27.648 40 27.5733 39.9573 27.52 39.872L24.352 34.944C24.3093 34.88 24.272 34.8747 24.24 34.928L23.056 36.304C23.0347 36.3467 23.024 36.384 23.024 36.416V39.808C23.024 39.8613 23.0027 39.9093 22.96 39.952C22.928 39.984 22.8853 40 22.832 40H21.36Z" fill="#58595B"/>
<path d="M24.376 51.104C24.376 51.1307 24.3653 51.1547 24.344 51.176C24.328 51.192 24.3067 51.2 24.28 51.2H21.552C21.5253 51.2 21.512 51.2133 21.512 51.24V52.736C21.512 52.7627 21.5253 52.776 21.552 52.776H23.384C23.4107 52.776 23.432 52.7867 23.448 52.808C23.4693 52.824 23.48 52.8453 23.48 52.872V53.48C23.48 53.5067 23.4693 53.5307 23.448 53.552C23.432 53.568 23.4107 53.576 23.384 53.576H21.552C21.5253 53.576 21.512 53.5893 21.512 53.616V55.16C21.512 55.1867 21.5253 55.2 21.552 55.2H24.28C24.3067 55.2 24.328 55.2107 24.344 55.232C24.3653 55.248 24.376 55.2693 24.376 55.296V55.904C24.376 55.9307 24.3653 55.9547 24.344 55.976C24.328 55.992 24.3067 56 24.28 56H20.68C20.6533 56 20.6293 55.992 20.608 55.976C20.592 55.9547 20.584 55.9307 20.584 55.904V50.496C20.584 50.4693 20.592 50.448 20.608 50.432C20.6293 50.4107 20.6533 50.4 20.68 50.4H24.28C24.3067 50.4 24.328 50.4107 24.344 50.432C24.3653 50.448 24.376 50.4693 24.376 50.496V51.104ZM27.5904 51.848C28.0224 51.848 28.3664 51.976 28.6224 52.232C28.8837 52.488 29.0144 52.8373 29.0144 53.28V55.904C29.0144 55.9307 29.0037 55.9547 28.9824 55.976C28.9664 55.992 28.945 56 28.9184 56H28.1824C28.1557 56 28.1317 55.992 28.1104 55.976C28.0944 55.9547 28.0864 55.9307 28.0864 55.904V53.472C28.0864 53.2267 28.017 53.0293 27.8784 52.88C27.7397 52.7253 27.5557 52.648 27.3264 52.648C27.097 52.648 26.9104 52.7227 26.7664 52.872C26.6277 53.0213 26.5584 53.2187 26.5584 53.464V55.904C26.5584 55.9307 26.5477 55.9547 26.5264 55.976C26.5104 55.992 26.489 56 26.4624 56H25.7264C25.6997 56 25.6757 55.992 25.6544 55.976C25.6384 55.9547 25.6304 55.9307 25.6304 55.904V52.008C25.6304 51.9813 25.6384 51.96 25.6544 51.944C25.6757 51.9227 25.6997 51.912 25.7264 51.912H26.4624C26.489 51.912 26.5104 51.9227 26.5264 51.944C26.5477 51.96 26.5584 51.9813 26.5584 52.008V52.264C26.5584 52.28 26.5637 52.2907 26.5744 52.296C26.585 52.3013 26.593 52.296 26.5984 52.28C26.817 51.992 27.1477 51.848 27.5904 51.848ZM31.9419 51.848C32.2779 51.848 32.5739 51.9067 32.8299 52.024C33.0859 52.1413 33.2833 52.304 33.4219 52.512C33.5606 52.7147 33.6299 52.9467 33.6299 53.208V55.904C33.6299 55.9307 33.6193 55.9547 33.5979 55.976C33.5819 55.992 33.5606 56 33.5339 56H32.7979C32.7713 56 32.7473 55.992 32.7259 55.976C32.7099 55.9547 32.7019 55.9307 32.7019 55.904V55.648C32.7019 55.632 32.6966 55.624 32.6859 55.624C32.6753 55.6187 32.6646 55.6213 32.6539 55.632C32.3926 55.92 32.0139 56.064 31.5179 56.064C31.1179 56.064 30.7873 55.9627 30.5259 55.76C30.2699 55.5573 30.1419 55.256 30.1419 54.856C30.1419 54.44 30.2859 54.1173 30.5739 53.888C30.8673 53.6533 31.2779 53.536 31.8059 53.536H32.6619C32.6886 53.536 32.7019 53.5227 32.7019 53.496V53.304C32.7019 53.096 32.6406 52.936 32.5179 52.824C32.3953 52.7067 32.2113 52.648 31.9659 52.648C31.7633 52.648 31.5979 52.6853 31.4699 52.76C31.3473 52.8293 31.2699 52.928 31.2379 53.056C31.2219 53.12 31.1846 53.1467 31.1259 53.136L30.3499 53.04C30.3233 53.0347 30.2993 53.0267 30.2779 53.016C30.2619 53 30.2566 52.9813 30.2619 52.96C30.3046 52.6347 30.4779 52.368 30.7819 52.16C31.0913 51.952 31.4779 51.848 31.9419 51.848ZM31.7499 55.328C32.0113 55.328 32.2353 55.2587 32.4219 55.12C32.6086 54.9813 32.7019 54.8053 32.7019 54.592V54.216C32.7019 54.1893 32.6886 54.176 32.6619 54.176H31.9899C31.7073 54.176 31.4833 54.2293 31.3179 54.336C31.1579 54.4427 31.0779 54.5947 31.0779 54.792C31.0779 54.9627 31.1393 55.096 31.2619 55.192C31.3899 55.2827 31.5526 55.328 31.7499 55.328ZM38.4096 52.968C38.5003 53.2667 38.5456 53.592 38.5456 53.944C38.5456 54.3227 38.495 54.656 38.3936 54.944C38.2763 55.296 38.087 55.5707 37.8256 55.768C37.5643 55.9653 37.2443 56.064 36.8656 56.064C36.4923 56.064 36.1856 55.9227 35.9456 55.64C35.935 55.624 35.9243 55.6187 35.9136 55.624C35.903 55.6293 35.8976 55.64 35.8976 55.656V55.904C35.8976 55.9307 35.887 55.9547 35.8656 55.976C35.8496 55.992 35.8283 56 35.8016 56H35.0656C35.039 56 35.015 55.992 34.9936 55.976C34.9776 55.9547 34.9696 55.9307 34.9696 55.904V50.496C34.9696 50.4693 34.9776 50.448 34.9936 50.432C35.015 50.4107 35.039 50.4 35.0656 50.4H35.8016C35.8283 50.4 35.8496 50.4107 35.8656 50.432C35.887 50.448 35.8976 50.4693 35.8976 50.496V52.232C35.8976 52.248 35.903 52.2587 35.9136 52.264C35.9243 52.2693 35.935 52.2667 35.9456 52.256C36.175 51.984 36.479 51.848 36.8576 51.848C37.2523 51.848 37.5776 51.9467 37.8336 52.144C38.095 52.3413 38.287 52.616 38.4096 52.968ZM37.4016 54.88C37.5296 54.656 37.5936 54.3493 37.5936 53.96C37.5936 53.544 37.5136 53.2187 37.3536 52.984C37.2096 52.76 36.9963 52.648 36.7136 52.648C36.4523 52.648 36.2523 52.7653 36.1136 53C35.9803 53.2187 35.9136 53.536 35.9136 53.952C35.9136 54.3627 35.975 54.672 36.0976 54.88C36.2363 55.136 36.4443 55.264 36.7216 55.264C36.871 55.264 37.0043 55.232 37.1216 55.168C37.239 55.0987 37.3323 55.0027 37.4016 54.88ZM39.9264 56C39.8997 56 39.8757 55.992 39.8544 55.976C39.8384 55.9547 39.8304 55.9307 39.8304 55.904V50.496C39.8304 50.4693 39.8384 50.448 39.8544 50.432C39.8757 50.4107 39.8997 50.4 39.9264 50.4H40.6624C40.689 50.4 40.7104 50.4107 40.7264 50.432C40.7477 50.448 40.7584 50.4693 40.7584 50.496V55.904C40.7584 55.9307 40.7477 55.9547 40.7264 55.976C40.7104 55.992 40.689 56 40.6624 56H39.9264ZM42.6724 51.352C42.5071 51.352 42.3711 51.2987 42.2644 51.192C42.1578 51.0853 42.1044 50.9493 42.1044 50.784C42.1044 50.6187 42.1578 50.4827 42.2644 50.376C42.3711 50.2693 42.5071 50.216 42.6724 50.216C42.8378 50.216 42.9738 50.2693 43.0804 50.376C43.1871 50.4827 43.2404 50.6187 43.2404 50.784C43.2404 50.9493 43.1871 51.0853 43.0804 51.192C42.9738 51.2987 42.8378 51.352 42.6724 51.352ZM42.2884 56C42.2618 56 42.2378 55.992 42.2164 55.976C42.2004 55.9547 42.1924 55.9307 42.1924 55.904V52C42.1924 51.9733 42.2004 51.952 42.2164 51.936C42.2378 51.9147 42.2618 51.904 42.2884 51.904H43.0244C43.0511 51.904 43.0724 51.9147 43.0884 51.936C43.1098 51.952 43.1204 51.9733 43.1204 52V55.904C43.1204 55.9307 43.1098 55.9547 43.0884 55.976C43.0724 55.992 43.0511 56 43.0244 56H42.2884ZM46.5435 51.848C46.9755 51.848 47.3195 51.976 47.5755 52.232C47.8368 52.488 47.9675 52.8373 47.9675 53.28V55.904C47.9675 55.9307 47.9568 55.9547 47.9355 55.976C47.9195 55.992 47.8982 56 47.8715 56H47.1355C47.1088 56 47.0848 55.992 47.0635 55.976C47.0475 55.9547 47.0395 55.9307 47.0395 55.904V53.472C47.0395 53.2267 46.9702 53.0293 46.8315 52.88C46.6928 52.7253 46.5088 52.648 46.2795 52.648C46.0502 52.648 45.8635 52.7227 45.7195 52.872C45.5808 53.0213 45.5115 53.2187 45.5115 53.464V55.904C45.5115 55.9307 45.5008 55.9547 45.4795 55.976C45.4635 55.992 45.4422 56 45.4155 56H44.6795C44.6528 56 44.6288 55.992 44.6075 55.976C44.5915 55.9547 44.5835 55.9307 44.5835 55.904V52.008C44.5835 51.9813 44.5915 51.96 44.6075 51.944C44.6288 51.9227 44.6528 51.912 44.6795 51.912H45.4155C45.4422 51.912 45.4635 51.9227 45.4795 51.944C45.5008 51.96 45.5115 51.9813 45.5115 52.008V52.264C45.5115 52.28 45.5168 52.2907 45.5275 52.296C45.5382 52.3013 45.5462 52.296 45.5515 52.28C45.7702 51.992 46.1008 51.848 46.5435 51.848ZM51.8391 52.008C51.8391 51.9813 51.8471 51.96 51.8631 51.944C51.8844 51.9227 51.9084 51.912 51.9351 51.912H52.6711C52.6977 51.912 52.7191 51.9227 52.7351 51.944C52.7564 51.96 52.7671 51.9813 52.7671 52.008V55.728C52.7671 56.3947 52.5751 56.8693 52.1911 57.152C51.8124 57.44 51.3137 57.584 50.6951 57.584C50.5297 57.584 50.3671 57.576 50.2071 57.56C50.1484 57.5547 50.1191 57.52 50.1191 57.456L50.1431 56.8C50.1431 56.7413 50.1804 56.712 50.2551 56.712C50.4097 56.728 50.5484 56.736 50.6711 56.736C51.0711 56.736 51.3644 56.656 51.5511 56.496C51.7431 56.3413 51.8391 56.0773 51.8391 55.704V55.64C51.8391 55.624 51.8337 55.616 51.8231 55.616C51.8124 55.6107 51.8017 55.6133 51.7911 55.624C51.5724 55.8587 51.2631 55.976 50.8631 55.976C50.5164 55.976 50.1991 55.888 49.9111 55.712C49.6231 55.536 49.4231 55.2667 49.3111 54.904C49.2417 54.6533 49.2071 54.3307 49.2071 53.936C49.2071 53.4933 49.2497 53.1547 49.3351 52.92C49.4417 52.5947 49.6257 52.336 49.8871 52.144C50.1484 51.9467 50.4551 51.848 50.8071 51.848C51.2284 51.848 51.5564 51.9707 51.7911 52.216C51.8017 52.232 51.8124 52.2373 51.8231 52.232C51.8337 52.2267 51.8391 52.216 51.8391 52.2V52.008ZM51.7831 54.64C51.8044 54.56 51.8177 54.4747 51.8231 54.384C51.8337 54.288 51.8391 54.136 51.8391 53.928C51.8391 53.7253 51.8337 53.5813 51.8231 53.496C51.8177 53.4053 51.8017 53.3173 51.7751 53.232C51.7324 53.056 51.6444 52.9147 51.5111 52.808C51.3831 52.7013 51.2177 52.648 51.0151 52.648C50.8231 52.648 50.6604 52.7013 50.5271 52.808C50.3937 52.9147 50.2977 53.056 50.2391 53.232C50.1751 53.3813 50.1431 53.616 50.1431 53.936C50.1431 54.2667 50.1697 54.4987 50.2231 54.632C50.2764 54.8027 50.3724 54.944 50.5111 55.056C50.6551 55.1627 50.8257 55.216 51.0231 55.216C51.2311 55.216 51.3991 55.1627 51.5271 55.056C51.6551 54.9493 51.7404 54.8107 51.7831 54.64ZM58.0872 56.064C57.6872 56.064 57.3352 55.9867 57.0312 55.832C56.7272 55.672 56.4926 55.4507 56.3272 55.168C56.1619 54.8853 56.0792 54.5573 56.0792 54.184V52.208C56.0792 51.8347 56.1619 51.5067 56.3272 51.224C56.4926 50.9413 56.7272 50.7227 57.0312 50.568C57.3352 50.4133 57.6872 50.336 58.0872 50.336C58.4819 50.336 58.8312 50.4107 59.1352 50.56C59.4392 50.7093 59.6739 50.92 59.8392 51.192C60.0046 51.464 60.0872 51.7787 60.0872 52.136C60.0872 52.1627 60.0766 52.1867 60.0552 52.208C60.0392 52.224 60.0179 52.232 59.9912 52.232L59.2552 52.272C59.1912 52.272 59.1592 52.2427 59.1592 52.184C59.1592 51.8693 59.0606 51.616 58.8632 51.424C58.6712 51.232 58.4126 51.136 58.0872 51.136C57.7619 51.136 57.5006 51.232 57.3032 51.424C57.1059 51.616 57.0072 51.8693 57.0072 52.184V54.224C57.0072 54.5333 57.1059 54.784 57.3032 54.976C57.5006 55.168 57.7619 55.264 58.0872 55.264C58.4126 55.264 58.6712 55.1707 58.8632 54.984C59.0606 54.792 59.1592 54.5387 59.1592 54.224C59.1592 54.1653 59.1912 54.136 59.2552 54.136L59.9912 54.168C60.0179 54.168 60.0392 54.176 60.0552 54.192C60.0766 54.208 60.0872 54.2267 60.0872 54.248C60.0872 54.6107 60.0046 54.9307 59.8392 55.208C59.6739 55.48 59.4392 55.6907 59.1352 55.84C58.8312 55.9893 58.4819 56.064 58.0872 56.064ZM63.1226 56.064C62.7013 56.064 62.3386 55.9573 62.0346 55.744C61.736 55.5307 61.5253 55.2347 61.4026 54.856C61.312 54.568 61.2666 54.264 61.2666 53.944C61.2666 53.6027 61.3093 53.2987 61.3946 53.032C61.5173 52.6587 61.7306 52.368 62.0346 52.16C62.3386 51.952 62.704 51.848 63.1306 51.848C63.536 51.848 63.8853 51.952 64.1786 52.16C64.4773 52.368 64.688 52.656 64.8106 53.024C64.9066 53.28 64.9546 53.584 64.9546 53.936C64.9546 54.272 64.9093 54.576 64.8186 54.848C64.696 55.2267 64.4853 55.5253 64.1866 55.744C63.888 55.9573 63.5333 56.064 63.1226 56.064ZM63.1226 55.264C63.32 55.264 63.488 55.208 63.6266 55.096C63.7706 54.984 63.8746 54.8267 63.9386 54.624C63.992 54.448 64.0186 54.224 64.0186 53.952C64.0186 53.664 63.992 53.44 63.9386 53.28C63.88 53.0773 63.7786 52.9227 63.6346 52.816C63.4906 52.704 63.3146 52.648 63.1066 52.648C62.9093 52.648 62.7386 52.704 62.5946 52.816C62.4506 52.9227 62.3466 53.0773 62.2826 53.28C62.2293 53.4667 62.2026 53.6907 62.2026 53.952C62.2026 54.2133 62.2293 54.4373 62.2826 54.624C62.3413 54.8267 62.4426 54.984 62.5866 55.096C62.736 55.208 62.9146 55.264 63.1226 55.264ZM70.6079 51.848C71.0186 51.848 71.3386 51.9733 71.5679 52.224C71.8026 52.4693 71.9199 52.8133 71.9199 53.256V55.904C71.9199 55.9307 71.9093 55.9547 71.8879 55.976C71.8719 55.992 71.8506 56 71.8239 56H71.0959C71.0693 56 71.0453 55.992 71.0239 55.976C71.0079 55.9547 70.9999 55.9307 70.9999 55.904V53.448C70.9999 53.2027 70.9333 53.008 70.7999 52.864C70.6719 52.72 70.4986 52.648 70.2799 52.648C70.0613 52.648 69.8826 52.72 69.7439 52.864C69.6053 53.008 69.5359 53.2 69.5359 53.44V55.904C69.5359 55.9307 69.5253 55.9547 69.5039 55.976C69.4879 55.992 69.4666 56 69.4399 56H68.7119C68.6853 56 68.6613 55.992 68.6399 55.976C68.6239 55.9547 68.6159 55.9307 68.6159 55.904V53.448C68.6159 53.2027 68.5493 53.008 68.4159 52.864C68.2826 52.72 68.1066 52.648 67.8879 52.648C67.6853 52.648 67.5173 52.7067 67.3839 52.824C67.2559 52.9413 67.1813 53.1013 67.1599 53.304V55.904C67.1599 55.9307 67.1493 55.9547 67.1279 55.976C67.1119 55.992 67.0906 56 67.0639 56H66.3279C66.3013 56 66.2773 55.992 66.2559 55.976C66.2399 55.9547 66.2319 55.9307 66.2319 55.904V52.008C66.2319 51.9813 66.2399 51.96 66.2559 51.944C66.2773 51.9227 66.3013 51.912 66.3279 51.912H67.0639C67.0906 51.912 67.1119 51.9227 67.1279 51.944C67.1493 51.96 67.1599 51.9813 67.1599 52.008V52.272C67.1599 52.288 67.1653 52.2987 67.1759 52.304C67.1866 52.3093 67.1973 52.304 67.2079 52.288C67.3253 52.1387 67.4693 52.0293 67.6399 51.96C67.8159 51.8853 68.0106 51.848 68.2239 51.848C68.4853 51.848 68.7146 51.9013 68.9119 52.008C69.1093 52.1147 69.2613 52.2693 69.3679 52.472C69.3839 52.4933 69.4026 52.4933 69.4239 52.472C69.5413 52.2587 69.7039 52.1013 69.9119 52C70.1199 51.8987 70.3519 51.848 70.6079 51.848ZM76.7287 52.968C76.8247 53.24 76.8727 53.5733 76.8727 53.968C76.8727 54.3467 76.8274 54.672 76.7367 54.944C76.6194 55.296 76.4301 55.5707 76.1687 55.768C75.9127 55.9653 75.5874 56.064 75.1927 56.064C74.8141 56.064 74.5101 55.928 74.2807 55.656C74.2701 55.6453 74.2594 55.6427 74.2487 55.648C74.2381 55.6533 74.2327 55.664 74.2327 55.68V57.416C74.2327 57.4427 74.2221 57.464 74.2007 57.48C74.1847 57.5013 74.1634 57.512 74.1367 57.512H73.4007C73.3741 57.512 73.3501 57.5013 73.3287 57.48C73.3127 57.464 73.3047 57.4427 73.3047 57.416V52.008C73.3047 51.9813 73.3127 51.96 73.3287 51.944C73.3501 51.9227 73.3741 51.912 73.4007 51.912H74.1367C74.1634 51.912 74.1847 51.9227 74.2007 51.944C74.2221 51.96 74.2327 51.9813 74.2327 52.008V52.248C74.2327 52.264 74.2381 52.2747 74.2487 52.28C74.2594 52.2853 74.2701 52.28 74.2807 52.264C74.5154 51.9867 74.8221 51.848 75.2007 51.848C75.5794 51.848 75.8994 51.9467 76.1607 52.144C76.4221 52.3413 76.6114 52.616 76.7287 52.968ZM75.6887 54.928C75.8487 54.6827 75.9287 54.3573 75.9287 53.952C75.9287 53.5627 75.8647 53.256 75.7367 53.032C75.5874 52.7707 75.3607 52.64 75.0567 52.64C74.7794 52.64 74.5714 52.768 74.4327 53.024C74.3101 53.232 74.2487 53.5413 74.2487 53.952C74.2487 54.3733 74.3154 54.6933 74.4487 54.912C74.5874 55.1467 74.7874 55.264 75.0487 55.264C75.3314 55.264 75.5447 55.152 75.6887 54.928ZM78.2686 56C78.2419 56 78.2179 55.992 78.1966 55.976C78.1806 55.9547 78.1726 55.9307 78.1726 55.904V50.496C78.1726 50.4693 78.1806 50.448 78.1966 50.432C78.2179 50.4107 78.2419 50.4 78.2686 50.4H79.0046C79.0312 50.4 79.0526 50.4107 79.0686 50.432C79.0899 50.448 79.1006 50.4693 79.1006 50.496V55.904C79.1006 55.9307 79.0899 55.9547 79.0686 55.976C79.0526 55.992 79.0312 56 79.0046 56H78.2686ZM81.0146 51.352C80.8493 51.352 80.7133 51.2987 80.6066 51.192C80.5 51.0853 80.4466 50.9493 80.4466 50.784C80.4466 50.6187 80.5 50.4827 80.6066 50.376C80.7133 50.2693 80.8493 50.216 81.0146 50.216C81.18 50.216 81.316 50.2693 81.4226 50.376C81.5293 50.4827 81.5826 50.6187 81.5826 50.784C81.5826 50.9493 81.5293 51.0853 81.4226 51.192C81.316 51.2987 81.18 51.352 81.0146 51.352ZM80.6306 56C80.604 56 80.58 55.992 80.5586 55.976C80.5426 55.9547 80.5346 55.9307 80.5346 55.904V52C80.5346 51.9733 80.5426 51.952 80.5586 51.936C80.58 51.9147 80.604 51.904 80.6306 51.904H81.3666C81.3933 51.904 81.4146 51.9147 81.4306 51.936C81.452 51.952 81.4626 51.9733 81.4626 52V55.904C81.4626 55.9307 81.452 55.9547 81.4306 55.976C81.4146 55.992 81.3933 56 81.3666 56H80.6306ZM84.4857 51.848C84.8217 51.848 85.1177 51.9067 85.3737 52.024C85.6297 52.1413 85.827 52.304 85.9657 52.512C86.1044 52.7147 86.1737 52.9467 86.1737 53.208V55.904C86.1737 55.9307 86.163 55.9547 86.1417 55.976C86.1257 55.992 86.1044 56 86.0777 56H85.3417C85.315 56 85.291 55.992 85.2697 55.976C85.2537 55.9547 85.2457 55.9307 85.2457 55.904V55.648C85.2457 55.632 85.2404 55.624 85.2297 55.624C85.219 55.6187 85.2084 55.6213 85.1977 55.632C84.9364 55.92 84.5577 56.064 84.0617 56.064C83.6617 56.064 83.331 55.9627 83.0697 55.76C82.8137 55.5573 82.6857 55.256 82.6857 54.856C82.6857 54.44 82.8297 54.1173 83.1177 53.888C83.411 53.6533 83.8217 53.536 84.3497 53.536H85.2057C85.2324 53.536 85.2457 53.5227 85.2457 53.496V53.304C85.2457 53.096 85.1844 52.936 85.0617 52.824C84.939 52.7067 84.755 52.648 84.5097 52.648C84.307 52.648 84.1417 52.6853 84.0137 52.76C83.891 52.8293 83.8137 52.928 83.7817 53.056C83.7657 53.12 83.7284 53.1467 83.6697 53.136L82.8937 53.04C82.867 53.0347 82.843 53.0267 82.8217 53.016C82.8057 53 82.8004 52.9813 82.8057 52.96C82.8484 52.6347 83.0217 52.368 83.3257 52.16C83.635 51.952 84.0217 51.848 84.4857 51.848ZM84.2937 55.328C84.555 55.328 84.779 55.2587 84.9657 55.12C85.1524 54.9813 85.2457 54.8053 85.2457 54.592V54.216C85.2457 54.1893 85.2324 54.176 85.2057 54.176H84.5337C84.251 54.176 84.027 54.2293 83.8617 54.336C83.7017 54.4427 83.6217 54.5947 83.6217 54.792C83.6217 54.9627 83.683 55.096 83.8057 55.192C83.9337 55.2827 84.0964 55.328 84.2937 55.328ZM89.4654 51.848C89.8974 51.848 90.2414 51.976 90.4974 52.232C90.7587 52.488 90.8894 52.8373 90.8894 53.28V55.904C90.8894 55.9307 90.8787 55.9547 90.8574 55.976C90.8414 55.992 90.82 56 90.7934 56H90.0574C90.0307 56 90.0067 55.992 89.9854 55.976C89.9694 55.9547 89.9614 55.9307 89.9614 55.904V53.472C89.9614 53.2267 89.892 53.0293 89.7534 52.88C89.6147 52.7253 89.4307 52.648 89.2014 52.648C88.972 52.648 88.7854 52.7227 88.6414 52.872C88.5027 53.0213 88.4334 53.2187 88.4334 53.464V55.904C88.4334 55.9307 88.4227 55.9547 88.4014 55.976C88.3854 55.992 88.364 56 88.3374 56H87.6014C87.5747 56 87.5507 55.992 87.5294 55.976C87.5134 55.9547 87.5054 55.9307 87.5054 55.904V52.008C87.5054 51.9813 87.5134 51.96 87.5294 51.944C87.5507 51.9227 87.5747 51.912 87.6014 51.912H88.3374C88.364 51.912 88.3854 51.9227 88.4014 51.944C88.4227 51.96 88.4334 51.9813 88.4334 52.008V52.264C88.4334 52.28 88.4387 52.2907 88.4494 52.296C88.46 52.3013 88.468 52.296 88.4734 52.28C88.692 51.992 89.0227 51.848 89.4654 51.848ZM93.9297 56.064C93.519 56.064 93.1644 55.96 92.8657 55.752C92.567 55.5387 92.359 55.2533 92.2417 54.896C92.1564 54.656 92.1137 54.336 92.1137 53.936C92.1137 53.552 92.1564 53.2373 92.2417 52.992C92.3537 52.64 92.559 52.3627 92.8577 52.16C93.1617 51.952 93.519 51.848 93.9297 51.848C94.3457 51.848 94.7084 51.952 95.0177 52.16C95.327 52.368 95.5324 52.6293 95.6337 52.944C95.6604 53.0293 95.679 53.1147 95.6897 53.2V53.216C95.6897 53.2693 95.6604 53.3013 95.6017 53.312L94.8817 53.416H94.8657C94.8177 53.416 94.7857 53.3893 94.7697 53.336C94.7697 53.3093 94.767 53.288 94.7617 53.272C94.751 53.2293 94.7404 53.192 94.7297 53.16C94.6817 53.0107 94.5857 52.888 94.4417 52.792C94.2977 52.696 94.127 52.648 93.9297 52.648C93.727 52.648 93.5537 52.7013 93.4097 52.808C93.271 52.9093 93.1777 53.0507 93.1297 53.232C93.0764 53.4027 93.0497 53.64 93.0497 53.944C93.0497 54.2373 93.0737 54.4747 93.1217 54.656C93.175 54.8427 93.271 54.992 93.4097 55.104C93.5484 55.2107 93.7217 55.264 93.9297 55.264C94.1324 55.264 94.3057 55.2133 94.4497 55.112C94.599 55.0053 94.695 54.864 94.7377 54.688C94.743 54.6773 94.7457 54.664 94.7457 54.648C94.751 54.6427 94.7537 54.6347 94.7537 54.624C94.7697 54.56 94.807 54.5333 94.8657 54.544L95.5857 54.656C95.6124 54.6613 95.6337 54.6747 95.6497 54.696C95.671 54.712 95.679 54.736 95.6737 54.768C95.6577 54.8533 95.6444 54.9147 95.6337 54.952C95.5324 55.2933 95.327 55.5653 95.0177 55.768C94.7084 55.9653 94.3457 56.064 93.9297 56.064ZM100.285 53.496C100.306 53.6293 100.317 53.7787 100.317 53.944L100.309 54.192C100.309 54.256 100.277 54.288 100.213 54.288H97.7086C97.682 54.288 97.6686 54.3013 97.6686 54.328C97.6846 54.504 97.7086 54.624 97.7406 54.688C97.8686 55.072 98.1806 55.2667 98.6766 55.272C99.0393 55.272 99.3273 55.1227 99.5406 54.824C99.562 54.792 99.5886 54.776 99.6206 54.776C99.642 54.776 99.6606 54.784 99.6766 54.8L100.173 55.208C100.221 55.2453 100.229 55.288 100.197 55.336C100.031 55.5707 99.81 55.752 99.5326 55.88C99.2606 56.008 98.9566 56.072 98.6206 56.072C98.2046 56.072 97.85 55.9787 97.5566 55.792C97.2686 55.6053 97.058 55.344 96.9246 55.008C96.802 54.72 96.7406 54.32 96.7406 53.808C96.7406 53.4987 96.7726 53.248 96.8366 53.056C96.9433 52.6827 97.1433 52.3893 97.4366 52.176C97.7353 51.9573 98.0926 51.848 98.5086 51.848C99.5593 51.848 100.151 52.3973 100.285 53.496ZM98.5086 52.648C98.3113 52.648 98.146 52.6987 98.0126 52.8C97.8846 52.896 97.794 53.032 97.7406 53.208C97.7086 53.2987 97.6873 53.416 97.6766 53.56C97.666 53.5867 97.6766 53.6 97.7086 53.6H99.3326C99.3593 53.6 99.3726 53.5867 99.3726 53.56C99.362 53.4267 99.346 53.3253 99.3246 53.256C99.2766 53.064 99.1806 52.9147 99.0366 52.808C98.898 52.7013 98.722 52.648 98.5086 52.648Z" fill="#58595B" fill-opacity="0.72"/>
<path d="M44.96 40.16C44.16 40.16 43.4507 40 42.832 39.68C42.2133 39.3493 41.7333 38.8853 41.392 38.288C41.0613 37.6907 40.896 37.0027 40.896 36.224V32.576C40.896 31.808 41.0667 31.1307 41.408 30.544C41.7493 29.9467 42.224 29.488 42.832 29.168C43.4507 28.8373 44.16 28.672 44.96 28.672C45.7707 28.672 46.48 28.8373 47.088 29.168C47.7067 29.488 48.1867 29.9467 48.528 30.544C48.8693 31.1307 49.04 31.808 49.04 32.576V36.224C49.04 37.0027 48.8693 37.6907 48.528 38.288C48.1867 38.8853 47.7067 39.3493 47.088 39.68C46.48 40 45.7707 40.16 44.96 40.16ZM44.96 38.56C45.632 38.56 46.1707 38.352 46.576 37.936C46.9813 37.52 47.184 36.9707 47.184 36.288V32.56C47.184 31.8667 46.9813 31.312 46.576 30.896C46.1707 30.48 45.632 30.272 44.96 30.272C44.2987 30.272 43.7653 30.48 43.36 30.896C42.9547 31.312 42.752 31.8667 42.752 32.56V36.288C42.752 36.9707 42.9547 37.52 43.36 37.936C43.7653 38.352 44.2987 38.56 44.96 38.56Z" fill="#58595B"/>
<path d="M70.384 28.928C70.4373 28.8427 70.512 28.8 70.608 28.8H72.08C72.1333 28.8 72.176 28.8213 72.208 28.864C72.2507 28.896 72.272 28.9387 72.272 28.992V39.808C72.272 39.8613 72.2507 39.9093 72.208 39.952C72.176 39.984 72.1333 40 72.08 40H70.608C70.5547 40 70.5067 39.984 70.464 39.952C70.432 39.9093 70.416 39.8613 70.416 39.808V32.176C70.416 32.144 70.4 32.1227 70.368 32.112C70.3467 32.1013 70.3307 32.112 70.32 32.144L68.32 35.216C68.2667 35.3013 68.192 35.344 68.096 35.344H67.36C67.264 35.344 67.1893 35.3013 67.136 35.216L65.12 32.16C65.1093 32.128 65.088 32.1173 65.056 32.128C65.0347 32.1387 65.024 32.16 65.024 32.192V39.808C65.024 39.8613 65.0027 39.9093 64.96 39.952C64.928 39.984 64.8853 40 64.832 40H63.36C63.3067 40 63.2587 39.984 63.216 39.952C63.184 39.9093 63.168 39.8613 63.168 39.808V28.992C63.168 28.9387 63.184 28.896 63.216 28.864C63.2587 28.8213 63.3067 28.8 63.36 28.8H64.832C64.928 28.8 65.0027 28.8427 65.056 28.928L67.664 32.88C67.6853 32.9013 67.7067 32.912 67.728 32.912C67.7493 32.912 67.7653 32.9013 67.776 32.88L70.384 28.928Z" fill="#58595B"/>
<path d="M92.456 40C92.3493 40 92.2747 39.952 92.232 39.856L90.12 35.248C90.0987 35.2053 90.0667 35.184 90.024 35.184H88.104C88.0507 35.184 88.024 35.2107 88.024 35.264V39.808C88.024 39.8613 88.0027 39.9093 87.96 39.952C87.928 39.984 87.8853 40 87.832 40H86.36C86.3067 40 86.2587 39.984 86.216 39.952C86.184 39.9093 86.168 39.8613 86.168 39.808V28.992C86.168 28.9387 86.184 28.896 86.216 28.864C86.2587 28.8213 86.3067 28.8 86.36 28.8H90.76C91.4107 28.8 91.9867 28.9387 92.488 29.216C92.9893 29.4827 93.3787 29.8667 93.656 30.368C93.9333 30.8587 94.072 31.424 94.072 32.064C94.072 32.8 93.88 33.4293 93.496 33.952C93.1227 34.464 92.6 34.8213 91.928 35.024C91.9067 35.024 91.8907 35.0347 91.88 35.056C91.8693 35.0773 91.8693 35.0987 91.88 35.12L94.136 39.776C94.1573 39.8187 94.168 39.8507 94.168 39.872C94.168 39.9573 94.1093 40 93.992 40H92.456ZM88.104 30.4C88.0507 30.4 88.024 30.4267 88.024 30.48V33.664C88.024 33.7173 88.0507 33.744 88.104 33.744H90.504C91.016 33.744 91.4267 33.5947 91.736 33.296C92.056 32.9867 92.216 32.5813 92.216 32.08C92.216 31.5787 92.056 31.1733 91.736 30.864C91.4267 30.5547 91.016 30.4 90.504 30.4H88.104Z" fill="#58595B"/>
<path d="M107.36 40C107.307 40 107.259 39.984 107.216 39.952C107.184 39.9093 107.168 39.8613 107.168 39.808V28.992C107.168 28.9387 107.184 28.896 107.216 28.864C107.259 28.8213 107.307 28.8 107.36 28.8H108.832C108.885 28.8 108.928 28.8213 108.96 28.864C109.003 28.896 109.024 28.9387 109.024 28.992V39.808C109.024 39.8613 109.003 39.9093 108.96 39.952C108.928 39.984 108.885 40 108.832 40H107.36Z" fill="#58595B"/>
<path d="M142.36 40C142.307 40 142.259 39.984 142.216 39.952C142.184 39.9093 142.168 39.8613 142.168 39.808V28.992C142.168 28.9387 142.184 28.896 142.216 28.864C142.259 28.8213 142.307 28.8 142.36 28.8H143.832C143.885 28.8 143.928 28.8213 143.96 28.864C144.003 28.896 144.024 28.9387 144.024 28.992V33.776C144.024 33.808 144.035 33.8293 144.056 33.84C144.077 33.8507 144.099 33.8453 144.12 33.824L148.28 28.912C148.344 28.8373 148.424 28.8 148.52 28.8H150.184C150.291 28.8 150.344 28.8373 150.344 28.912C150.344 28.944 150.328 28.9867 150.296 29.04L146.632 33.536C146.6 33.5787 146.595 33.616 146.616 33.648L150.552 39.776C150.573 39.84 150.584 39.8773 150.584 39.888C150.584 39.9627 150.531 40 150.424 40H148.744C148.648 40 148.573 39.9573 148.52 39.872L145.352 34.944C145.309 34.88 145.272 34.8747 145.24 34.928L144.056 36.304C144.035 36.3467 144.024 36.384 144.024 36.416V39.808C144.024 39.8613 144.003 39.9093 143.96 39.952C143.928 39.984 143.885 40 143.832 40H142.36Z" fill="#58595B"/>
<rect x="126" y="31.8564" width="5" height="8" transform="rotate(30 126 31.8564)" fill="#7A0760" fill-opacity="0.8"/>
<rect x="126" y="27" width="5" height="8" transform="rotate(30 126 27)" fill="#79E4B1" fill-opacity="0.8"/>
<rect x="112" y="8" width="40" height="16" rx="3" fill="#41DCC9"/>
<path d="M122.72 19C122.693 19 122.669 18.992 122.648 18.976C122.632 18.9547 122.624 18.9307 122.624 18.904V13.496C122.624 13.4693 122.632 13.448 122.648 13.432C122.669 13.4107 122.693 13.4 122.72 13.4H123.656C123.682 13.4 123.704 13.4107 123.72 13.432C123.741 13.448 123.752 13.4693 123.752 13.496V17.992C123.752 18.0187 123.765 18.032 123.792 18.032H126.408C126.434 18.032 126.456 18.0427 126.472 18.064C126.493 18.08 126.504 18.1013 126.504 18.128V18.904C126.504 18.9307 126.493 18.9547 126.472 18.976C126.456 18.992 126.434 19 126.408 19H122.72ZM129.658 14.424C129.476 14.424 129.324 14.3653 129.202 14.248C129.084 14.1253 129.026 13.9733 129.026 13.792C129.026 13.6053 129.084 13.4533 129.202 13.336C129.319 13.2187 129.471 13.16 129.658 13.16C129.844 13.16 129.996 13.2187 130.114 13.336C130.231 13.4533 130.29 13.6053 130.29 13.792C130.29 13.9733 130.228 14.1253 130.106 14.248C129.988 14.3653 129.839 14.424 129.658 14.424ZM129.178 19C129.151 19 129.127 18.992 129.106 18.976C129.09 18.9547 129.082 18.9307 129.082 18.904V14.976C129.082 14.9493 129.09 14.928 129.106 14.912C129.127 14.8907 129.151 14.88 129.178 14.88H130.114C130.14 14.88 130.162 14.8907 130.178 14.912C130.199 14.928 130.21 14.9493 130.21 14.976V18.904C130.21 18.9307 130.199 18.9547 130.178 18.976C130.162 18.992 130.14 19 130.114 19H129.178ZM135.369 15.696C135.369 15.7227 135.358 15.7467 135.337 15.768C135.321 15.784 135.299 15.792 135.273 15.792H134.505C134.478 15.792 134.465 15.8053 134.465 15.832V17.528C134.465 17.704 134.499 17.8347 134.569 17.92C134.643 18.0053 134.761 18.048 134.921 18.048H135.185C135.211 18.048 135.233 18.0587 135.249 18.08C135.27 18.096 135.281 18.1173 135.281 18.144V18.904C135.281 18.9627 135.249 18.9973 135.185 19.008C134.961 19.0187 134.801 19.024 134.705 19.024C134.262 19.024 133.931 18.952 133.713 18.808C133.494 18.6587 133.382 18.3813 133.377 17.976V15.832C133.377 15.8053 133.363 15.792 133.337 15.792H132.881C132.854 15.792 132.83 15.784 132.809 15.768C132.793 15.7467 132.785 15.7227 132.785 15.696V14.984C132.785 14.9573 132.793 14.936 132.809 14.92C132.83 14.8987 132.854 14.888 132.881 14.888H133.337C133.363 14.888 133.377 14.8747 133.377 14.848V13.896C133.377 13.8693 133.385 13.848 133.401 13.832C133.422 13.8107 133.446 13.8 133.473 13.8H134.369C134.395 13.8 134.417 13.8107 134.433 13.832C134.454 13.848 134.465 13.8693 134.465 13.896V14.848C134.465 14.8747 134.478 14.888 134.505 14.888H135.273C135.299 14.888 135.321 14.8987 135.337 14.92C135.358 14.936 135.369 14.9573 135.369 14.984V15.696ZM141.553 16.52C141.585 16.7227 141.596 16.9493 141.585 17.2C141.58 17.264 141.545 17.296 141.481 17.296H139.009C138.977 17.296 138.967 17.3093 138.977 17.336C138.993 17.4427 139.023 17.5493 139.065 17.656C139.204 17.9547 139.487 18.104 139.913 18.104C140.255 18.0987 140.524 17.96 140.721 17.688C140.743 17.656 140.767 17.64 140.793 17.64C140.809 17.64 140.828 17.6507 140.849 17.672L141.425 18.24C141.452 18.2667 141.465 18.2907 141.465 18.312C141.465 18.3227 141.455 18.344 141.433 18.376C141.257 18.5947 141.031 18.7653 140.753 18.888C140.476 19.0053 140.172 19.064 139.841 19.064C139.383 19.064 138.993 18.96 138.673 18.752C138.359 18.544 138.132 18.2533 137.993 17.88C137.881 17.6133 137.825 17.264 137.825 16.832C137.825 16.5387 137.865 16.28 137.945 16.056C138.068 15.6773 138.281 15.376 138.585 15.152C138.895 14.928 139.26 14.816 139.681 14.816C140.215 14.816 140.641 14.9707 140.961 15.28C141.287 15.5893 141.484 16.0027 141.553 16.52ZM139.689 15.792C139.353 15.792 139.132 15.9493 139.025 16.264C139.004 16.3333 138.985 16.4187 138.969 16.52C138.969 16.5467 138.983 16.56 139.009 16.56H140.393C140.425 16.56 140.436 16.5467 140.425 16.52C140.399 16.3653 140.385 16.2907 140.385 16.296C140.337 16.136 140.252 16.0133 140.129 15.928C140.012 15.8373 139.865 15.792 139.689 15.792Z" fill="#F5F5F5"/>
</svg>
